<?xml version="1.0" encoding="utf-8"?>
<!-- Generator: Adobe Illustrator 20.1.0, SVG Export Plug-In . SVG Version: 6.00 Build 0)  -->
<svg version="1.1" id="Layer_1" xmlns="http://www.w3.org/2000/svg" xmlns:xlink="http://www.w3.org/1999/xlink" x="0px" y="0px"
	 viewBox="0 0 612 792" style="enable-background:new 0 0 612 792;" xml:space="preserve">
<style type="text/css">
	.st0{fill:url(#SVGID_1_);}
	.st1{fill:url(#SVGID_2_);}
	.st2{fill:url(#SVGID_3_);}
	.st3{fill:url(#SVGID_4_);}
	.st4{fill:#F57F2A;}
</style>
<g>
	<path d="M62,184.6c0-0.7,0.1-1.3,0.4-1.6c0.2-2.9,0.4-7.6,0.4-14.2c0-6.1,0.2-10.9,0.6-14.2c0.4-0.9,1.2-1.4,2.2-1.5
		c2.4-0.2,4.6-0.3,6.6-0.3c1.4,0,4-0.1,7.7-0.2c3.8-0.1,6.4-0.2,7.7-0.2h18.4c2.4,0,5,0.2,7.5,0.6c0.8,0.7,2.1,1.2,3.8,1.5
		c1.9,0.4,3.2,0.8,3.8,1.1c11.4,6.3,17.1,15.1,17.1,26.4c0,3.4-0.3,8.7-0.9,16c-0.9,2.2-1.7,4.3-2.4,6.2c-0.9,2.5-1.9,4.5-3,5.9
		c-3.4,4.4-7.8,7.3-13.1,8.7c-2.6,0.7-7.7,1.1-15.3,1.4c-5.9,0.2-10.8,0.3-14.7,0.3H64.2c-1.2-0.7-1.8-1.3-1.8-1.6v-33
		C62.1,185.7,62,185.2,62,184.6z M90,203.1c4.6,0,8.6-0.3,12.1-0.8c4.4-0.6,7.4-2.6,9.3-5.9c1.5-2.7,2.3-6.8,2.3-12.2
		c0-3.2-1.2-6.4-3.5-9.3c-2.3-3-4.9-4.5-7.7-4.5H87.5c-0.6,0-0.9,0.3-1.1,0.9c-0.5,2-0.7,6-0.7,12.2v16.8
		C85.7,202.1,87.2,203.1,90,203.1z"/>
	<path d="M143.1,192.7c2.2-3.5,5.8-6,10.8-7.2c1.1-0.3,5.3-0.8,12.5-1.7c5.2-0.6,10.3-1,15.5-1.1l0.4-0.5c0-0.3,0.1-0.5,0.1-0.8
		c0-2-2.9-3.1-8.7-3.1c-5.8,0-9.9,0.4-12.4,1.3c-5,1.7-7.8,2.6-8.5,2.6c-0.7,0-1.1,0-1.3-0.1c-2.3-4.1-4.4-8.2-6.3-12.3
		c-0.3-0.6-0.4-1.2-0.4-1.9c0-1.4,2.8-2.9,8.5-4.6c4.4-1.3,7.8-2.1,10.3-2.4c3-0.3,6.1-0.5,9.3-0.5c8.8,0,15.4,1.1,19.9,3.2
		c7.4,3.5,11.1,10,11.1,19.6c0,2.5,0.1,6.2,0.3,11.1c0.2,4.9,0.3,8.7,0.3,11.2c0.4,0.9,1.3,1.8,2.5,2.7c0.7,0.5,1.1,2.1,1.1,4.6
		c0,6.6-0.6,10-1.8,10h-18.9c-0.6,0-1.4-0.6-2.3-1.9c-0.9-1.2-1.6-1.9-2.1-1.9c-0.4,0-1,0.2-1.9,0.7c-6.8,3.7-12.7,5.5-17.6,5.5
		c-6.3,0-11.5-1.3-15.6-4c-5.4-3.5-8.1-9.2-8.1-17C139.7,200.1,140.8,196.2,143.1,192.7z M169.3,207.4c2.9,0,5.7-0.5,8.2-1.6
		c3.8-1.6,5.7-3.8,5.7-6.7v-0.4l-0.4-1.2c-1.5-0.5-2.9-0.7-4.2-0.7h-2.7c-9.2,0-13.8,1.7-13.8,5.2
		C162.1,205.6,164.5,207.4,169.3,207.4z"/>
	<path d="M217.5,192.7c-5.6-18.8-8.3-28.6-8.3-29.3c0-1.7,1.4-2.5,4.1-2.5c8.1,0,12.8,0.3,14.1,0.9c0.5,0.9,0.8,1.8,0.8,2.5
		l8.5,27.8c0.1,0.1,0.2,0.1,0.3,0.1c0.6,0,1.1-0.8,1.5-2.5c0.4-1.7,0.8-3,1-3.9l1.7-6.7c2.6-10.4,4.2-16,4.7-16.8
		c0.6-1,1.9-1.4,3.8-1.4l13.9,0.7c0.1,0.1,0.3,0.3,0.4,0.6v0.3c0,0.6-0.1,1.4-0.4,2.2l-11.8,40.6c-1.1,4.1-1.9,7.1-2.5,9.1
		c-1.3,4.3-2.4,6.9-3.3,7.7c-1,0.8-2.2,1.2-3.8,1.2c-5.2,0-10.4-0.3-15.5-0.8C226.2,221.4,223.1,211.5,217.5,192.7z"/>
	<path d="M281,223.4c-3.5-0.2-6.2-0.3-7.9-0.3c-0.9,0-1.5-0.4-1.7-1.3c0-0.3-0.1-1.1-0.1-2.5l0.4-36.3c0-1.6,0-2.7-0.1-3.5
		c0.1-1.8,0.6-2.6,1.4-2.6h10.5c1.4,0,3.8,0.2,7.4,0.5l0.9,1c0.3,16.9,0.4,26.4,0.4,28.5c0,8.2-0.3,13.5-0.9,15.8
		c-0.2,0.7-1,1.1-2.5,1.1C287.1,223.7,284.5,223.6,281,223.4z M271.7,171.3v-2.7c0-0.4,0-0.9-0.1-1.5c0-0.6,0-0.9,0-1.1
		c0-2.3,0.6-3.7,1.7-4.1c0.1,0,1.7-0.2,4.9-0.3c2.1-0.1,3.8-0.1,5.2-0.1c2.9,0,4.5,0,4.8,0.1c2.5,0.2,3.7,0.8,3.7,1.8v9l-0.9,0.9
		c-1.1,0-1.8,0.1-2.1,0.1c-2.3,0-7.8-0.2-16.3-0.5C272.3,172.5,272,172,271.7,171.3z"/>
	<path d="M294,199.9c0.2-8.4,0.2-14.7,0.2-19v-7.3c0-3.6,0-5-0.1-4.2c0.1-2,0.5-3,1.4-3h17.5c0.5,0,0.8,0.5,1.1,1.5
		c0.3,1,0.6,1.5,1.1,1.5c0.3,0,3.2-1.2,8.6-3.6c2.6-0.8,5.5-1.2,8.5-1.2c5.4,0,10,1.5,14,4.4c4.8,3.6,7.5,8.5,7.9,14.9
		c0.1,4.5,0.2,7.6,0.2,9.3c0.2,10.4,0.3,16.5,0.3,18.3c0,6.9-0.8,10.7-2.3,11.5h-8.8c-1.9,0-4.8-0.2-8.8-0.6c-0.6-0.4-0.9-1-0.9-1.8
		v-28.6c0-3-0.9-5.4-2.8-7.1c-1.7-1.5-3.7-2.2-6.1-2.2c-2.6,0-5,1-7.1,3c-2.4,2.2-3.6,4.9-3.6,8.1v3.8c0,2.7,0,5.3,0,7.6
		c0,10.1-0.5,15.8-1.4,17c-0.4,0.5-1,0.7-1.8,0.7h-15.6c-1.2,0-1.8-1.4-1.8-4.2C293.8,214.6,293.9,208.3,294,199.9z"/>
	<path d="M366.5,167.1c5.6-4.4,13.1-6.6,22.6-6.6c15.9,0,26.1,5.1,30.8,15.2c1.5,3.4,2.3,5.8,2.3,7.3c0,1.4-0.5,2.1-1.4,2.1h-19.3
		c-1.1,0-2.2-0.7-3.3-2c-2-2.4-3.1-3.6-3.3-3.7c-1.5-1.3-3.4-2-5.5-2c-3.4,0-6,1.3-8,4c-1.9,2.6-2.9,6.2-2.9,10.7
		c0,2.7,0.1,4.6,0.4,5.8c0.4,1.4,1.2,2.9,2.5,4.5c1.3,1.6,2.4,2.6,3.2,3.1c0.9,0.4,2.2,0.7,4,0.7c2.9,0,5.1-0.7,6.7-2.2
		c0.6-0.6,2.2-2.7,4.7-6.5c0.1-0.2,0.3-0.4,0.5-0.6h21.5c0.3,0,0.4,0.6,0.4,1.7c0,3.7-1.5,7.8-4.5,12.3c-3.4,5.2-8.3,8.7-14.5,10.5
		c-4.1,1.2-9.7,1.8-16.9,1.8c-8.7,0-15.7-2.1-20.9-6.4c-6.4-5.2-9.6-13.2-9.6-23.9C356.1,181,359.6,172.5,366.5,167.1z"/>
	<path d="M433.5,223.6c-3.5-0.2-6.2-0.3-7.9-0.3c-0.9,0-1.5-0.4-1.7-1.3c0-0.3-0.1-1.1-0.1-2.5l0.4-36.4c0-1.6,0-2.7-0.1-3.6
		c0.1-1.8,0.6-2.6,1.4-2.6h10.5c1.4,0,3.9,0.2,7.4,0.5l0.9,1c0.3,17,0.4,26.5,0.4,28.6c0,8.3-0.3,13.5-0.9,15.8
		c-0.2,0.7-1,1.1-2.5,1.1C439.6,223.9,437,223.8,433.5,223.6z M424.2,171.3v-2.7c0-0.4,0-0.9-0.1-1.5c0-0.6,0-0.9,0-1.1
		c0-2.3,0.6-3.7,1.7-4.1c0.1,0,1.7-0.2,4.9-0.3c2.1-0.1,3.8-0.1,5.2-0.1c2.9,0,4.5,0,4.8,0.1c2.5,0.2,3.7,0.8,3.7,1.8v9l-0.9,0.9
		c-1.1,0-1.8,0.1-2.1,0.1c-2.3,0-7.8-0.2-16.3-0.5C424.8,172.6,424.4,172.1,424.2,171.3z"/>
	<g>
		<linearGradient id="SVGID_1_" gradientUnits="userSpaceOnUse" x1="166.8356" y1="95.1316" x2="265.3421" y2="95.1316">
			<stop  offset="0" style="stop-color:#EF392D"/>
			<stop  offset="1" style="stop-color:#FBAE2C"/>
		</linearGradient>
		<rect x="166.8" y="37.7" class="st0" width="98.5" height="114.8"/>
		<linearGradient id="SVGID_2_" gradientUnits="userSpaceOnUse" x1="307.2824" y1="95.1316" x2="405.7889" y2="95.1316">
			<stop  offset="0" style="stop-color:#7FC242"/>
			<stop  offset="0.5697" style="stop-color:#15BCBD"/>
			<stop  offset="1" style="stop-color:#15489E"/>
		</linearGradient>
		<rect x="307.3" y="37.7" class="st1" width="98.5" height="114.8"/>
		<linearGradient id="SVGID_3_" gradientUnits="userSpaceOnUse" x1="304.1599" y1="280.612" x2="402.666" y2="280.612">
			<stop  offset="0" style="stop-color:#7FC242"/>
			<stop  offset="0.5697" style="stop-color:#15BCBD"/>
			<stop  offset="1" style="stop-color:#15489E"/>
		</linearGradient>
		<rect x="304.2" y="223.2" class="st2" width="98.5" height="114.8"/>
		<linearGradient id="SVGID_4_" gradientUnits="userSpaceOnUse" x1="167.2334" y1="280.8076" x2="265.7414" y2="280.8076">
			<stop  offset="0" style="stop-color:#EF392D"/>
			<stop  offset="1" style="stop-color:#FBAE2C"/>
		</linearGradient>
		<rect x="167.2" y="223.4" class="st3" width="98.5" height="114.8"/>
	</g>
	<g>
		<path class="st4" d="M298,199.9c0.2-8.4,0.2-14.7,0.2-19v-7.3c0-3.6,0-5-0.1-4.2c0.1-2,0.5-3,1.3-3h16.7c0.5,0,0.8,0.5,1.1,1.5
			c0.2,1,0.6,1.5,1.1,1.5c0.3,0,3-1.2,8.2-3.5c2.5-0.8,5.2-1.2,8.1-1.2c5.1,0,9.6,1.5,13.3,4.4c4.6,3.6,7.1,8.5,7.5,14.9
			c0.1,4.5,0.2,7.6,0.2,9.3c0.2,10.4,0.3,16.5,0.3,18.3c0,6.9-0.7,10.7-2.2,11.5h-8.4c-1.8,0-4.6-0.2-8.4-0.6
			c-0.6-0.4-0.9-1-0.9-1.8v-28.6c0-3-0.9-5.4-2.7-7.1c-1.6-1.5-3.5-2.2-5.9-2.2c-2.5,0-4.8,1-6.8,3c-2.3,2.2-3.4,4.9-3.4,8.1v3.8
			c0,2.7,0,5.3,0,7.6c0,10.1-0.4,15.8-1.3,17c-0.4,0.5-1,0.7-1.8,0.7h-14.9c-1.1,0-1.7-1.4-1.7-4.2
			C297.8,214.6,297.9,208.3,298,199.9z"/>
	</g>
	<g>
		<path class="st4" d="M401.9,225.2h9.3c0.2,0,0.4,0.6,0.6,1.8l3.9,51c0,0.1,0.1,0.1,0.2,0.1c0.3,0,0.5-0.9,0.6-2.8l4.1-49.5
			c0.1-1.1,0.4-1.7,1-1.7c0.9,0,2.2,0.1,3.9,0.4c1.7,0.3,3,0.4,3.9,0.4c0.3,0,0.4,0.6,0.5,1.7c1.4,16.1,2.4,27.3,2.9,33.6
			c0.7,8.2,1.1,13.1,1.3,14.6c0.2,1.5,0.4,2.3,0.5,2.3h0.1l3.9-50.2c0.1-0.9,0.1-1.6,0.2-1.8c0.1-0.7,1.2-1,3.2-1h3.6
			c1.9,0,3,0.6,3.1,1.7l-4.7,63.6c-0.4,3.9-0.6,6.5-0.8,7.9l-2.9,36.2c-0.2,2.9-0.5,4.4-1,4.4h-9.3c-0.2,0-0.5-1.8-0.8-5.4
			l-3.1-36.9c0-0.3,0.1-0.7,0.1-1.1c0-1.1-0.1-2.4-0.3-3.9c-0.2-1.5-0.5-2.2-0.7-2.2c-0.2,0-0.4,0.9-0.6,2.8l-3.7,44.8l-0.8,1.8
			c-4.7,0.5-7.4,0.8-8.3,0.9c-0.8,0-1.4-1.5-1.6-4.4l-8.4-103.9V225.2z"/>
		<path class="st4" d="M451.7,254.9c2.3-5.5,5.5-8.3,9.8-8.3c1.5,0,2.4,0,2.7,0.1c3.3,0.9,5.9,5.3,8,13.1c2.3,8.7,3.5,20.2,3.5,34.4
			v3.1c0,2.8,0,3.9,0,3.1c-0.3,2.1-0.7,3.1-1.2,3.1h-14.9l-2.3,1.3c0,3.8,0.5,6.7,1.6,8.6c0.8,1.4,1.7,2.1,2.7,2.1
			c0.6,0,1.3-0.9,2.4-2.7c1-1.8,1.7-2.7,2-2.7h9.1c0.1,0,0.2,0.4,0.2,1.3c0,4.8-0.5,9.5-1.6,14.2c-0.9,4.2-2,7.1-3.1,8.7
			c-2.2,3.3-5.2,4.9-8.9,4.9c-3.6,0-6.5-2-8.6-6.1c-2.8-5.4-4.6-14.8-5.6-28.5c-0.3-3.9-0.4-8-0.4-12.1
			C447.2,274.9,448.7,262.3,451.7,254.9z M458.6,281.2h3.1c1.3,0,2.7-0.3,4.1-1c0.1-0.3,0.2-0.7,0.2-1.3c0-3-0.6-5.4-1.9-7.2
			c-1-1.4-1.9-2.1-2.7-2.1c-0.7,0-1.5,0.8-2.5,2.5c-1.2,2.1-1.8,4.3-1.8,6.8C457,280.4,457.6,281.2,458.6,281.2z"/>
		<path class="st4" d="M489.2,339.6c-0.2-0.3-0.9-1.2-1.9-2.9c-1.1-1.7-1.6-2.5-1.7-2.5c-0.2,0-0.4,0.8-0.7,2.2
			c-0.3,1.5-0.6,2.3-0.8,2.3h-6.8c-0.2,0-0.4-0.4-0.6-1.1c-0.2-0.7-0.3-1.5-0.3-2.4v-45c0-7.7,0-17.2,0.1-28.3
			c0-6,0.1-12.5,0.1-19.5c0-5.3,0-8.2,0-8.9c0-0.7,0-1.6,0-3c0-1.4,0-2.4,0-3.1c0.1-2.8,0.3-4.2,0.6-4.2h7.6
			c0.3,1.2,0.5,2.4,0.5,3.5v27.4c0,0.7,0.2,1,0.7,1c0.3,0,1.5-1.4,3.6-4.2c1-1.4,2.1-2.1,3.3-2.1c3.3,0,6.1,4.2,8.4,12.7
			c2.5,9,3.8,20.8,3.8,35.2c0,14-1.3,25.2-3.8,33.6c-2.3,7.4-5,11.1-8.2,11.1C491.6,341.4,490.4,340.8,489.2,339.6z M486.8,308.7
			c0.9,3,2,4.5,3.3,4.5c1.3,0,2.4-1.5,3.4-4.4c1.1-3.3,1.7-7.7,1.7-13.3c0-5.9-0.5-10.6-1.5-14c-0.9-3.1-2-4.7-3.4-4.7
			c-1.3,0-2.5,1.5-3.4,4.4c-1.1,3.4-1.6,8-1.6,13.8C485.2,300.8,485.7,305.3,486.8,308.7z"/>
		<path class="st4" d="M505.8,310.7h8.9c0.2,0,0.8,1,1.8,3.1c0.9,2.1,1.7,3.1,2.3,3.1c1.7,0,2.5-1.6,2.5-4.9c0-2.4-0.8-3.9-2.5-4.7
			c-2.4-0.9-4.2-1.6-5.4-2.1c-2.3-1.1-4.2-3.5-5.5-7.2c-1.7-4.6-2.5-11.2-2.5-19.9c0-12.6,1.7-21.2,5.2-25.9c2-2.7,4.9-4.1,8.6-4.1
			c0.7,0,1.7,0.4,3.1,1.3c2.4,1.5,4.2,3.4,5.4,5.6c2.1,4,3.1,10.1,3.1,18c0,0.7,0,1.1-0.1,1.3c-0.2,0.8-1.9,1.1-5,1.1h-5
			c-1.1-1.9-2.2-2.8-3.3-2.8c-0.7,0-1.1,0-1.2,0.1c-0.5,0.4-0.7,1.4-0.7,3.1c0,1.4,0.2,2.4,0.6,3.1c1.2,0.8,2.6,1.5,4.1,2.1
			c3.2,1.1,5.4,2.6,6.8,4.5c2.5,3.5,4.2,9.8,5.1,18.9c0,4.3,0,7.4-0.1,9.2c-0.1,3.3-0.3,6.1-0.6,8.5c-1.7,12.4-5.8,18.6-12.5,18.6
			c-3.3,0-6-1.4-8.2-4.1c-3.5-4.4-5.3-12.1-5.3-23C505.4,311.7,505.6,310.7,505.8,310.7z"/>
		<path class="st4" d="M536.9,338.5c-1.5-0.3-2.7-0.5-3.4-0.5c-0.4,0-0.6-0.8-0.7-2.4c0-0.6,0-2.1,0-4.7l0.2-67.8c0-2.9,0-5.1,0-6.6
			c0-3.3,0.2-4.9,0.6-4.9h4.6c0.6,0,1.7,0.3,3.2,0.8l0.4,1.8c0.1,31.7,0.2,49.4,0.2,53.3c0,15.4-0.1,25.2-0.4,29.5
			c-0.1,1.3-0.4,2-1.1,2C539.5,339,538.4,338.8,536.9,338.5z M532.8,241v-5.1c0-0.7,0-1.6,0-2.8c0-1,0-1.7,0-2.1
			c0-4.3,0.2-6.9,0.7-7.6c0-0.1,0.7-0.3,2.1-0.6c0.9-0.2,1.7-0.3,2.2-0.3c1.2,0,1.9,0,2.1,0.1c1.1,0.4,1.6,1.5,1.6,3.4v16.8
			l-0.4,1.7c-0.5,0.1-0.8,0.1-0.9,0.1c-1,0-3.4-0.3-7.1-1C533.1,243.3,533,242.4,532.8,241z"/>
		<path class="st4" d="M545.9,334.5c-1.1-3.9-1.7-10.3-1.8-19.5c0-3.5,0-5.9,0-7.2L544,286c0-3.7,0-6-0.1-7.1c0-1.1-0.3-1.9-0.8-2.5
			c-0.5-0.6-0.8-1.2-0.8-1.8v-20.3c0-0.7,0.3-1.5,0.8-2.1c0.5-0.7,0.8-1.4,0.8-2.3l0-4.7c0-2.5,0-4.6,0-6.2c0-2.2,0.1-3.4,0.2-3.8
			c0.3-1,1.6-2.9,3.9-5.5c2.2-2.4,3.4-3.7,3.6-3.7c0.6,0,1,0.4,1,1.3c0.2,3.4,0.3,10.9,0.3,22.6c0,0.5,0.3,1.1,0.8,1.9
			c0.5,0.8,0.7,1.6,0.7,2.5v19.5c-1,1.8-1.5,3.5-1.6,5.2c0,0.8-0.1,8-0.1,21.6c0,7.2,0.1,11.8,0.2,13.7c0,0.6,0.3,1.4,0.9,2.4
			c0.5,0.8,0.7,2.1,0.7,3.8v13.1c0,2.2-0.6,3.8-1.9,4.9c-0.9,0.8-1.7,1.3-2.5,1.3C548.4,339.7,546.9,338,545.9,334.5z"/>
		<path class="st4" d="M560,254.9c2.3-5.5,5.5-8.3,9.8-8.3c1.5,0,2.4,0,2.7,0.1c3.3,0.9,5.9,5.3,8,13.1c2.3,8.7,3.5,20.2,3.5,34.4
			v3.1c0,2.8,0,3.9,0,3.1c-0.3,2.1-0.7,3.1-1.2,3.1h-14.9l-2.3,1.3c0,3.8,0.5,6.7,1.6,8.6c0.8,1.4,1.7,2.1,2.7,2.1
			c0.6,0,1.3-0.9,2.4-2.7c1-1.8,1.7-2.7,2-2.7h9.1c0.1,0,0.2,0.4,0.2,1.3c0,4.8-0.5,9.5-1.6,14.2c-1,4.2-2,7.1-3.1,8.7
			c-2.2,3.3-5.2,4.9-8.9,4.9c-3.6,0-6.5-2-8.6-6.1c-2.8-5.4-4.6-14.8-5.6-28.5c-0.3-3.9-0.4-8-0.4-12.1
			C555.4,274.9,556.9,262.3,560,254.9z M566.9,281.2h3.1c1.3,0,2.7-0.3,4.1-1c0.1-0.3,0.2-0.7,0.2-1.3c0-3-0.6-5.4-1.9-7.2
			c-1-1.4-1.9-2.1-2.7-2.1c-0.7,0-1.5,0.8-2.5,2.5c-1.2,2.1-1.8,4.3-1.8,6.8C565.3,280.4,565.8,281.2,566.9,281.2z"/>
	</g>
	<g>
		<path d="M32.5,80.4c3.6-0.3,5.6-0.4,6.2-0.4h27.9c1.9,0,5.6,0.1,11,0.4l0.6,0.9v13.5h-14c-0.3,0.2-0.6,0.6-0.9,1.1l-0.3,15.9
			c-0.1,8-0.3,16.1-0.3,24.4l-0.3,0.9H48c-0.6,0-0.9-0.5-0.9-1.3V97.7c0-1.7-0.3-2.6-0.9-2.6l-4,0.1c-2,0-3.4,0.1-4.4,0.1
			c-3.9,0-5.8-0.5-5.8-1.5V81.3L32.5,80.4z"/>
		<path d="M80.4,79.1c4.5-0.3,7.9-0.5,10.1-0.5c1,0,1.6,0,1.7,0.1c0.7,0.2,1,0.8,1,1.7v15.1c0.2,0.3,0.5,0.4,0.8,0.4
			c0.7,0,1.4-0.2,2.1-0.7c1-0.6,1.7-1,1.9-1.1c3.2-1.2,5.8-1.8,7.8-1.8c4.3,0,7.8,1.3,10.6,3.8c3.3,3,5,7.4,5,13.2v23.5
			c0,2.5-0.5,3.8-1.5,3.8h-11.5c-0.3,0-0.6-0.3-0.9-0.8v-17.3c0-3.9-0.4-6.7-1.1-8.5c-1-2.3-2.7-3.5-5.3-3.5c-2.1,0-3.8,0.6-5.2,1.8
			c-1.7,1.4-2.5,3.5-2.5,6.2v16.8c-0.2,0.3-0.3,0.8-0.3,1.3v0.4c0.2,0.3,0.3,0.6,0.3,0.9c-0.1,0.8-0.3,1.5-0.6,2.2l-1.9,0.4H80.4
			c-0.2,0-0.5-0.2-0.8-0.6c-0.3-0.4-0.4-0.8-0.4-1.1V80.2L80.4,79.1z"/>
		<path d="M129.7,96.4c3.6-2.8,8.8-4.2,15.7-4.2c2.4,0,3.8,0,4.4,0.1c5.2,0.5,9.5,2.7,12.8,6.6c3.7,4.4,5.6,10.2,5.6,17.3v1.6
			c0,1.4,0,1.9,0,1.6c-0.5,1-1.1,1.6-1.9,1.6h-23.9l-3.7,0.6c0,1.9,0.9,3.4,2.6,4.3c1.3,0.7,2.7,1.1,4.3,1.1c0.9,0,2.2-0.5,3.8-1.3
			c1.6-0.9,2.7-1.3,3.2-1.3h14.6c0.2,0,0.3,0.2,0.3,0.6c0,2.4-0.8,4.8-2.5,7.2c-1.5,2.1-3.2,3.6-4.9,4.4c-3.5,1.7-8.3,2.5-14.3,2.5
			c-5.8,0-10.4-1-13.8-3c-4.4-2.7-7.4-7.5-8.9-14.3c-0.4-2-0.6-4-0.6-6.1C122.4,106.4,124.8,100.1,129.7,96.4z M140.7,109.6h4.9
			c2.1,0,4.3-0.2,6.6-0.5c0.2-0.1,0.3-0.3,0.3-0.6c0-1.5-1-2.7-3-3.6c-1.6-0.7-3-1.1-4.4-1.1c-1.1,0-2.5,0.4-4.1,1.3
			c-2,1-2.9,2.2-2.9,3.4C138.2,109.2,139.1,109.6,140.7,109.6z"/>
	</g>
</g>
</svg>
